<svg width="4618" height="600" viewBox="0 0 4618 600" fill="none" xmlns="http://www.w3.org/2000/svg">
<path d="M299.273 341.078C286.773 341.078 276.031 337.074 267.047 329.066C258.258 321.059 253.863 311.391 253.863 300.062C253.863 288.93 258.258 279.359 267.047 271.352C276.031 263.344 286.773 259.34 299.273 259.34H425.836C438.336 259.34 448.98 263.344 457.77 271.352C466.754 279.359 471.246 288.93 471.246 300.062V413.734C471.246 424.672 467.047 434.047 458.648 441.859C438.727 463.344 415.289 480.141 388.336 492.25C360.016 504.75 330.328 511 299.273 511C238.727 511 187.359 489.906 145.172 447.719C104.156 406.703 83.6484 357.484 83.6484 300.062C83.6484 242.836 104.156 193.617 145.172 152.406C187.359 110.219 238.727 89.125 299.273 89.125C326.031 89.125 351.91 93.8125 376.91 103.188C401.324 112.562 423.492 126.039 443.414 143.617C452.398 151.43 456.891 160.902 456.891 172.035C457.086 183.363 452.789 193.031 444 201.039C435.211 209.047 424.566 213.148 412.066 213.344C399.566 213.344 388.824 209.438 379.84 201.625C368.707 191.664 356.012 183.949 341.754 178.48C328.082 173.402 313.922 170.863 299.273 170.863C265.68 170.863 236.773 182.973 212.555 207.191C187.164 232.582 174.469 263.539 174.469 300.062C174.469 336.781 187.164 367.836 212.555 393.227C236.773 417.445 265.68 429.555 299.273 429.555C316.461 429.555 332.867 426.039 348.492 419.008C360.016 413.93 370.66 406.996 380.426 398.207V341.078H299.273ZM843.023 470.277C843.023 481.605 838.531 491.273 829.547 499.281C820.758 507.094 810.113 511 797.613 511C785.113 511 774.371 507.094 765.387 499.281C756.598 491.273 752.203 481.605 752.203 470.277V433.656C752.203 420.57 747.809 409.633 739.02 400.844C731.402 393.227 722.516 389.418 712.359 389.418H609.234V470.277C609.234 481.605 604.742 491.273 595.758 499.281C586.969 507.094 576.324 511 563.824 511C551.324 511 540.582 507.094 531.598 499.281C522.809 491.273 518.414 481.605 518.414 470.277V129.848C518.414 118.715 522.809 109.145 531.598 101.137C540.582 93.1289 551.324 89.125 563.824 89.125C576.324 89.125 586.969 93.1289 595.758 101.137C604.742 109.145 609.234 118.715 609.234 129.848V307.68H686.871C721.637 307.68 744.879 294.691 756.598 268.715C760.699 259.535 762.75 249.77 762.75 239.418C762.75 228.871 760.699 219.008 756.598 209.828C744.879 183.852 721.637 170.863 686.871 170.863H662.262C649.566 170.863 638.824 166.859 630.035 158.852C621.246 150.844 616.852 141.176 616.852 129.848C616.852 118.715 621.246 109.145 630.035 101.137C638.824 93.1289 649.566 89.125 662.262 89.125H686.871C724.762 89.125 757.477 97.8164 785.016 115.199C810.016 131.02 828.57 152.406 840.68 179.359C849.273 198.305 853.57 218.324 853.57 239.418C853.57 260.316 849.273 280.238 840.68 299.184C832.477 317.543 821.148 333.363 806.695 346.645C830.914 371.059 843.023 400.062 843.023 433.656V470.277Z" fill="#888888"/>
<path d="M1864.73 129.848C1864.73 118.715 1869.23 109.145 1878.21 101.137C1887 93.1289 1897.64 89.125 1910.14 89.125C1922.64 89.125 1933.39 93.1289 1942.37 101.137C1951.16 109.145 1955.55 118.715 1955.55 129.848V470.277C1955.55 481.605 1951.16 491.273 1942.37 499.281C1933.39 507.094 1922.64 511 1910.14 511C1897.64 511 1887 507.094 1878.21 499.281C1869.23 491.273 1864.73 481.605 1864.73 470.277V129.848ZM1463.37 129.848C1463.37 118.715 1467.76 109.145 1476.55 101.137C1485.54 93.1289 1496.28 89.125 1508.78 89.125C1521.28 89.125 1531.92 93.1289 1540.71 101.137C1549.7 109.145 1554.19 118.715 1554.19 129.848V370.961C1554.19 387.953 1559.95 402.309 1571.47 414.027C1581.82 424.379 1594.03 429.555 1608.09 429.555H1644.42C1656.92 429.555 1667.66 433.559 1676.65 441.566C1685.44 449.379 1689.83 458.949 1689.83 470.277C1689.83 481.605 1685.44 491.273 1676.65 499.281C1667.66 507.094 1656.92 511 1644.42 511H1608.09C1567.27 511 1532.61 496.84 1504.09 468.52C1476.94 441.371 1463.37 408.852 1463.37 370.961V129.848ZM1661.71 370.961C1661.71 408.852 1675.28 441.371 1702.43 468.52C1730.95 496.84 1765.61 511 1806.43 511H1818.45C1830.95 511 1841.59 506.996 1850.38 498.988C1859.17 491.176 1863.56 481.605 1863.56 470.277C1863.56 459.145 1859.17 449.574 1850.38 441.566C1841.59 433.559 1830.95 429.555 1818.45 429.555H1806.43C1792.37 429.555 1780.16 424.379 1769.81 414.027C1758.29 402.309 1752.53 387.953 1752.53 370.961V129.848C1752.53 118.715 1748.13 109.145 1739.34 101.137C1730.36 93.1289 1719.62 89.125 1707.12 89.125C1694.62 89.125 1683.97 93.1289 1675.18 101.137C1666.2 109.145 1661.71 118.715 1661.71 129.848V370.961ZM2243.54 89.125C2256.24 89.125 2266.98 93.1289 2275.77 101.137C2284.56 109.145 2288.95 118.812 2288.95 130.141C2288.95 141.273 2284.56 150.844 2275.77 158.852C2266.98 166.859 2256.24 170.863 2243.54 170.863H2030.26C2017.76 170.863 2007.02 166.859 1998.04 158.852C1989.25 150.844 1984.85 141.273 1984.85 130.141C1984.85 118.812 1989.25 109.145 1998.04 101.137C2007.02 93.1289 2017.76 89.125 2030.26 89.125H2243.54ZM2182.31 470.277C2182.31 481.605 2177.92 491.273 2169.13 499.281C2160.14 507.094 2149.4 511 2136.9 511C2124.4 511 2113.76 507.094 2104.97 499.281C2095.98 491.273 2091.49 481.605 2091.49 470.277V223.305C2091.49 211.977 2095.98 202.309 2104.97 194.301C2113.76 186.488 2124.4 182.582 2136.9 182.582C2149.4 182.582 2160.14 186.488 2169.13 194.301C2177.92 202.309 2182.31 211.977 2182.31 223.305V470.277ZM2628.5 470.277C2628.5 481.605 2624.01 491.273 2615.03 499.281C2606.24 507.094 2595.59 511 2583.09 511C2570.59 511 2559.85 507.094 2550.87 499.281C2542.08 491.273 2537.68 481.605 2537.68 470.277V341.078H2464.73C2452.04 341.078 2441.3 337.074 2432.51 329.066C2423.72 321.059 2419.32 311.391 2419.32 300.062C2419.32 288.93 2423.72 279.359 2432.51 271.352C2441.3 263.344 2452.04 259.34 2464.73 259.34H2537.68V129.848C2537.68 118.715 2542.08 109.145 2550.87 101.137C2559.85 93.1289 2570.59 89.125 2583.09 89.125C2595.59 89.125 2606.24 93.1289 2615.03 101.137C2624.01 109.145 2628.5 118.715 2628.5 129.848V470.277ZM2409.07 470.277C2409.07 481.605 2404.58 491.273 2395.59 499.281C2386.8 507.094 2376.16 511 2363.66 511C2351.16 511 2340.42 507.094 2331.43 499.281C2322.64 491.273 2318.25 481.605 2318.25 470.277V129.848C2318.25 118.715 2322.64 109.145 2331.43 101.137C2340.42 93.1289 2351.16 89.125 2363.66 89.125C2376.16 89.125 2386.8 93.1289 2395.59 101.137C2404.58 109.145 2409.07 118.715 2409.07 129.848V470.277Z" fill="#888888"/>
<path d="M1352.85 154.569C1351.9 153.597 1351.32 152.268 1351.32 150.804C1351.32 147.826 1353.73 145.412 1356.71 145.412C1359.06 145.412 1361.06 146.912 1361.8 149.006H1361.92C1384.18 170.279 1398.05 200.262 1398.05 233.484C1398.05 293.392 1352.96 342.769 1294.86 349.526C1292.19 350.043 1289.44 350.314 1286.61 350.314C1262.79 350.314 1243.48 331 1243.48 307.176C1243.48 283.352 1262.79 264.039 1286.61 264.039V264.018C1287.21 264.032 1287.81 264.039 1288.41 264.039C1329.11 264.039 1362.1 231.046 1362.1 190.346C1362.1 177.362 1358.75 165.163 1352.85 154.569Z" fill="#5D9FF0"/>
<path d="M1394.52 333.475C1394.54 332.117 1395.06 330.765 1396.1 329.73C1398.21 327.624 1401.62 327.624 1403.73 329.73C1405.39 331.39 1405.74 333.863 1404.78 335.867L1404.87 335.957C1405.57 366.74 1394.17 397.747 1370.68 421.239C1328.32 463.599 1261.52 466.63 1215.66 430.326C1213.41 428.806 1211.27 427.044 1209.27 425.049C1192.43 408.204 1192.43 380.891 1209.27 364.045C1226.12 347.199 1253.43 347.199 1270.28 364.045L1270.29 364.03C1270.7 364.462 1271.12 364.891 1271.55 365.316C1300.33 394.094 1346.99 394.094 1375.77 365.316C1384.95 356.135 1391.2 345.134 1394.52 333.475Z" fill="#5D9FF0"/>
<path d="M1295.43 488.446C1296.4 487.497 1297.73 486.915 1299.2 486.915C1302.17 486.915 1304.59 489.331 1304.59 492.307C1304.59 494.654 1303.09 496.653 1300.99 497.394V497.519C1279.72 519.782 1249.74 533.647 1216.52 533.647C1156.61 533.647 1107.23 488.554 1100.47 430.459C1099.96 427.788 1099.69 425.031 1099.69 422.209C1099.69 398.386 1119 379.072 1142.82 379.072C1166.65 379.072 1185.96 398.386 1185.96 422.209H1185.98C1185.97 422.806 1185.96 423.406 1185.96 424.006C1185.96 464.706 1218.95 497.699 1259.65 497.699C1272.64 497.699 1284.83 494.342 1295.43 488.446Z" fill="#5D9FF0"/>
<path d="M1115.48 526.522C1116.84 526.54 1118.19 527.068 1119.23 528.104C1121.34 530.207 1121.33 533.622 1119.23 535.728C1117.57 537.389 1115.1 537.741 1113.09 536.782L1113 536.871C1082.22 537.572 1051.21 526.173 1027.72 502.685C985.36 460.321 982.33 393.523 1018.63 347.664C1020.15 345.411 1021.91 343.269 1023.91 341.274C1040.75 324.428 1068.07 324.428 1084.91 341.274C1101.76 358.12 1101.76 385.434 1084.91 402.28L1084.93 402.294C1084.5 402.707 1084.07 403.124 1083.64 403.549C1054.86 432.328 1054.86 478.988 1083.64 507.768C1092.82 516.949 1103.82 523.201 1115.48 526.522Z" fill="#5D9FF0"/>
<path d="M1201.47 54.436C1200.12 54.4191 1198.76 53.8932 1197.73 52.8575C1195.62 50.7516 1195.62 47.3373 1197.73 45.2317C1199.39 43.5716 1201.86 43.2202 1203.87 44.1776L1203.96 44.0876C1234.74 43.3888 1265.75 54.785 1289.23 78.2761C1331.6 120.638 1334.63 187.438 1298.33 233.295C1296.8 235.549 1295.04 237.691 1293.05 239.686C1276.2 256.532 1248.89 256.532 1232.04 239.686C1215.2 222.84 1215.2 195.527 1232.04 178.681L1232.03 178.666C1232.46 178.253 1232.89 177.835 1233.32 177.41C1262.09 148.631 1262.09 101.971 1233.32 73.1924C1224.13 64.0114 1213.13 57.7593 1201.47 54.436Z" fill="#5D9FF0"/>
<path d="M1022.57 93.5533C1021.6 94.5009 1020.27 95.085 1018.8 95.085C1015.83 95.085 1013.41 92.6708 1013.41 89.6929C1013.41 87.3451 1014.91 85.3479 1017.01 84.6074V84.4801C1038.28 62.2195 1068.26 48.353 1101.48 48.353C1161.39 48.353 1210.77 93.4451 1217.52 151.541C1218.04 154.211 1218.31 156.969 1218.31 159.791C1218.31 183.615 1199 202.928 1175.18 202.928C1151.35 202.928 1132.04 183.615 1132.04 159.791H1132.02C1132.03 159.194 1132.04 158.594 1132.04 157.994C1132.04 117.294 1099.05 84.3007 1058.35 84.3007C1045.36 84.3007 1033.16 87.6586 1022.57 93.5533Z" fill="#5D9FF0"/>
<path d="M922.436 247.485C922.42 248.842 921.893 250.195 920.858 251.23C918.752 253.336 915.338 253.336 913.232 251.23C911.572 249.57 911.22 247.097 912.178 245.093L912.088 245.003C911.389 214.22 922.785 183.214 946.277 159.723C988.638 117.361 1055.44 114.331 1101.3 150.634C1103.55 152.156 1105.69 153.915 1107.69 155.91C1124.53 172.756 1124.53 200.069 1107.69 216.915C1090.84 233.761 1063.53 233.761 1046.68 216.915L1046.67 216.93C1046.25 216.498 1045.83 216.069 1045.41 215.644C1016.63 186.865 969.972 186.865 941.192 215.644C932.012 224.825 925.759 235.826 922.436 247.485Z" fill="#5D9FF0"/>
<path d="M961.552 423.837C962.5 424.808 963.084 426.138 963.084 427.601C963.084 430.578 960.67 432.993 957.692 432.993C955.344 432.993 953.347 431.494 952.607 429.398H952.479C930.219 408.125 916.352 378.144 916.352 344.921C916.352 285.013 961.444 235.636 1019.54 228.879C1022.21 228.362 1024.97 228.091 1027.79 228.091C1051.61 228.091 1070.93 247.405 1070.93 271.229C1070.93 295.053 1051.61 314.366 1027.79 314.366V314.387C1027.19 314.373 1026.59 314.366 1025.99 314.366C985.293 314.366 952.3 347.359 952.3 388.059C952.3 401.043 955.657 413.244 961.552 423.837Z" fill="#5D9FF0"/>
<path d="M3144.96 363.93C3150.43 353.773 3159.03 346.938 3170.75 343.422C3182.66 339.711 3194.18 340.395 3205.32 345.473C3216.64 350.355 3224.26 358.168 3228.17 368.91C3232.27 379.457 3231.59 389.809 3226.12 399.965C3207.37 433.754 3181.2 460.609 3147.6 480.531C3113.23 500.844 3076.12 511 3036.27 511C2975.73 511 2924.36 489.906 2882.17 447.719C2841.16 406.703 2820.65 357.484 2820.65 300.062C2820.65 242.836 2841.16 193.617 2882.17 152.406C2924.36 110.219 2975.73 89.125 3036.27 89.125C3063.03 89.125 3088.91 93.8125 3113.91 103.188C3138.32 112.562 3160.49 126.039 3180.41 143.617C3189.4 151.43 3193.89 160.902 3193.89 172.035C3194.09 183.363 3189.79 193.031 3181 201.039C3172.21 209.047 3161.57 213.148 3149.07 213.344C3136.57 213.344 3125.82 209.438 3116.84 201.625C3105.71 191.664 3093.01 183.949 3078.75 178.48C3065.08 173.402 3050.92 170.863 3036.27 170.863C3002.68 170.863 2973.77 182.973 2949.55 207.191C2924.16 232.582 2911.47 263.539 2911.47 300.062C2911.47 336.781 2924.16 367.836 2949.55 393.227C2973.77 417.445 3002.68 429.555 3036.27 429.555C3058.54 429.555 3079.05 423.891 3097.8 412.562C3117.72 400.844 3133.44 384.633 3144.96 363.93ZM3360.3 470.277C3360.3 481.41 3355.9 490.98 3347.11 498.988C3338.13 506.996 3327.39 511 3314.89 511C3302.39 511 3291.74 506.996 3282.95 498.988C3273.97 490.98 3269.48 481.41 3269.48 470.277V129.848C3269.48 118.52 3273.97 108.852 3282.95 100.844C3291.74 93.0312 3302.39 89.125 3314.89 89.125C3327.39 89.125 3338.13 93.0312 3347.11 100.844C3355.9 108.852 3360.3 118.52 3360.3 129.848V470.277ZM3504.44 288.637V247.914C3504.44 225.648 3496.82 206.898 3481.59 191.664C3467.72 177.602 3451.21 170.57 3432.07 170.57H3412.45C3399.95 170.57 3389.3 166.566 3380.51 158.559C3371.53 150.746 3367.04 141.176 3367.04 129.848C3367.04 118.52 3371.53 108.852 3380.51 100.844C3389.3 93.0312 3399.95 89.125 3412.45 89.125H3432.07C3477.97 89.125 3516.94 105.141 3548.97 137.172C3579.83 168.031 3595.26 204.945 3595.26 247.914V470.277C3595.26 481.41 3590.86 490.98 3582.07 498.988C3573.09 506.996 3562.35 511 3549.85 511C3537.35 511 3526.7 506.996 3517.91 498.988C3508.93 490.98 3504.44 481.41 3504.44 470.277V370.375H3412.74C3400.04 370.375 3389.3 366.371 3380.51 358.363C3371.72 350.355 3367.33 340.688 3367.33 329.359C3367.33 318.227 3371.72 308.656 3380.51 300.648C3389.3 292.641 3400.04 288.637 3412.74 288.637H3504.44ZM3805.32 170.863C3792.82 170.863 3782.17 166.859 3773.38 158.852C3764.4 150.844 3759.91 141.176 3759.91 129.848C3759.91 118.715 3764.4 109.145 3773.38 101.137C3782.17 93.1289 3792.82 89.125 3805.32 89.125C3846.14 89.125 3880.8 103.383 3909.32 131.898C3936.47 159.047 3950.04 191.469 3950.04 229.164V470.277C3950.04 481.605 3945.65 491.273 3936.86 499.281C3927.88 507.094 3917.13 511 3904.63 511C3892.13 511 3881.49 507.094 3872.7 499.281C3863.71 491.273 3859.22 481.605 3859.22 470.277V229.164C3859.22 212.172 3853.46 197.914 3841.94 186.391C3831.59 176.039 3819.38 170.863 3805.32 170.863ZM3738.81 470.277C3738.81 481.605 3734.32 491.273 3725.34 499.281C3716.55 507.094 3705.9 511 3693.4 511C3680.9 511 3670.16 507.094 3661.18 499.281C3652.39 491.273 3647.99 481.605 3647.99 470.277V129.848C3647.99 118.715 3652.39 109.145 3661.18 101.137C3670.16 93.1289 3680.9 89.125 3693.4 89.125C3705.9 89.125 3716.55 93.1289 3725.34 101.137C3734.32 109.145 3738.81 118.715 3738.81 129.848V470.277ZM3997.8 170.863C3985.3 170.863 3974.65 166.859 3965.86 158.852C3957.07 150.844 3952.68 141.176 3952.68 129.848C3952.68 118.715 3957.07 109.145 3965.86 101.137C3974.65 93.1289 3985.3 89.125 3997.8 89.125C4038.62 89.125 4073.29 103.383 4101.8 131.898C4128.95 159.047 4142.52 191.469 4142.52 229.164V470.277C4142.52 481.605 4138.13 491.273 4129.34 499.281C4120.36 507.094 4109.61 511 4097.11 511C4084.61 511 4073.97 507.094 4065.18 499.281C4056.2 491.273 4051.7 481.605 4051.7 470.277V229.164C4051.7 212.172 4045.94 197.914 4034.42 186.391C4024.07 176.039 4011.86 170.863 3997.8 170.863ZM4195.26 129.848C4195.26 118.715 4199.65 109.145 4208.44 101.137C4217.43 93.1289 4228.17 89.125 4240.67 89.125C4253.17 89.125 4263.81 93.1289 4272.6 101.137C4281.59 109.145 4286.08 118.715 4286.08 129.848V335.219H4363.71C4384.22 335.219 4402 327.699 4417.04 312.66C4433.25 296.449 4441.35 276.527 4441.35 252.895C4441.35 229.457 4433.25 209.633 4417.04 193.422C4402 178.383 4384.22 170.863 4363.71 170.863H4344.96C4332.46 170.863 4321.72 166.859 4312.74 158.852C4303.95 150.844 4299.55 141.176 4299.55 129.848C4299.55 118.715 4303.95 109.145 4312.74 101.137C4321.72 93.1289 4332.46 89.125 4344.96 89.125H4363.71C4410.98 89.125 4451.12 105.629 4484.12 138.637C4515.96 170.473 4531.88 208.559 4531.88 252.895C4531.88 297.23 4515.96 335.316 4484.12 367.152C4451.12 400.355 4410.98 416.957 4363.71 416.957H4286.08V470.277C4286.08 481.605 4281.59 491.273 4272.6 499.281C4263.81 507.094 4253.17 511 4240.67 511C4228.17 511 4217.43 507.094 4208.44 499.281C4199.65 491.273 4195.26 481.605 4195.26 470.277V129.848Z" fill="#5D9FF0"/>
</svg>
